<?xml version="1.0" standalone="no"?>
<!DOCTYPE svg PUBLIC "-//W3C//DTD SVG 20010904//EN"
 "http://www.w3.org/TR/2001/REC-SVG-20010904/DTD/svg10.dtd">
<svg version="1.0" xmlns="http://www.w3.org/2000/svg"
 width="521.000000pt" height="521.000000pt" viewBox="0 0 521.000000 521.000000"
 preserveAspectRatio="xMidYMid meet">

<g transform="translate(0.000000,521.000000) scale(0.100000,-0.100000)"
fill="#000000" stroke="none">
<path d="M1007 4123 c-7 -532 4 -1096 23 -1198 6 -33 18 -70 26 -82 35 -55 17
-81 -262 -364 -134 -137 -244 -255 -244 -264 0 -31 156 -190 968 -989 l273
-269 15 -136 c18 -170 39 -272 70 -333 33 -65 104 -148 283 -330 l154 -158
311 0 c171 0 316 4 321 8 18 12 229 253 300 342 37 46 80 109 94 140 25 53 26
63 29 270 l3 215 621 621 c341 342 619 626 617 632 -2 5 -89 100 -194 211
-183 194 -265 296 -265 329 0 9 10 36 23 61 21 44 22 59 26 331 3 273 -30
1281 -47 1409 l-7 54 -365 -379 c-201 -208 -453 -470 -559 -581 -107 -112
-197 -203 -201 -203 -4 0 -77 23 -161 52 -136 46 -166 52 -254 56 -87 3 -124
-1 -280 -34 -99 -20 -189 -38 -201 -38 -15 -1 -158 142 -508 509 -269 281
-514 536 -545 568 l-58 59 -6 -509z"/>
</g>
</svg>
