<?xml version="1.0" standalone="no"?>
<!DOCTYPE svg PUBLIC "-//W3C//DTD SVG 20010904//EN"
 "http://www.w3.org/TR/2001/REC-SVG-20010904/DTD/svg10.dtd">
<svg version="1.0" xmlns="http://www.w3.org/2000/svg"
 width="125.000000pt" height="125.000000pt" viewBox="0 0 125.000000 125.000000"
 preserveAspectRatio="xMidYMid meet">

<g transform="translate(0.000000,125.000000) scale(0.100000,-0.100000)"
fill="#292929" stroke="none">
<path d="M240 904 c0 -155 3 -213 13 -223 10 -10 -1 -25 -55 -78 -38 -36 -68
-68 -68 -73 0 -4 67 -73 149 -153 l150 -147 6 -57 c7 -53 12 -63 63 -116 l56
-57 77 0 76 0 52 59 c49 57 51 62 51 118 l0 58 150 150 149 149 -61 64 c-45
47 -58 66 -49 75 13 13 14 89 4 296 l-6 144 -136 -141 -136 -142 -49 17 c-43
14 -57 15 -110 4 l-60 -13 -133 139 -132 138 -1 -211z"/>
</g>
</svg>
