<?xml version="1.0" standalone="no"?>
<!DOCTYPE svg PUBLIC "-//W3C//DTD SVG 20010904//EN"
 "http://www.w3.org/TR/2001/REC-SVG-20010904/DTD/svg10.dtd">
<svg version="1.0" xmlns="http://www.w3.org/2000/svg"
 width="125.000000pt" height="125.000000pt" viewBox="0 0 125.000000 125.000000"
 preserveAspectRatio="xMidYMid meet">

<g transform="translate(0.000000,125.000000) scale(0.100000,-0.100000)"
fill="#000000" stroke="none">
<path d="M240 967 c0 -146 3 -206 12 -215 10 -10 -2 -27 -55 -80 l-67 -68 155
-148 155 -148 0 -57 c0 -56 0 -57 63 -119 l63 -62 66 0 66 0 56 64 c53 60 56
66 56 117 l0 54 150 150 150 150 -62 62 c-47 47 -59 65 -51 75 12 14 6 429 -6
427 -3 -1 -64 -62 -135 -136 l-128 -135 78 -79 79 -79 -88 -88 -88 -88 7 -43
7 -43 91 89 c130 127 120 122 161 83 19 -19 35 -39 35 -45 0 -5 -61 -71 -135
-145 l-135 -135 0 -50 c0 -47 -4 -54 -43 -93 -56 -55 -91 -56 -153 -5 -43 37
-44 38 -44 98 l0 60 -130 130 c-71 71 -130 134 -130 140 0 6 18 28 39 49 l40
39 110 -108 111 -108 0 44 c0 42 -4 48 -87 131 l-88 88 77 77 76 76 -131 139
c-73 76 -135 138 -139 138 -5 0 -8 -91 -8 -203z m157 -105 c-17 -19 -44 -43
-59 -54 l-28 -19 0 113 0 112 60 -59 60 -59 -33 -34z m538 -70 c-3 -3 -30 19
-60 48 l-55 54 57 59 58 58 3 -107 c1 -59 0 -109 -3 -112z m-595 -38 c11 -12
10 -18 -3 -32 -16 -15 -18 -15 -34 0 -13 14 -14 20 -3 32 7 9 16 16 20 16 4 0
13 -7 20 -16z m613 -36 c-15 -17 -17 -17 -35 -1 -17 15 -17 17 -1 35 15 17 17
17 35 1 17 -15 17 -17 1 -35z"/>
</g>
</svg>
